<?xml version="1.0" standalone="no"?>
<!DOCTYPE svg PUBLIC "-//W3C//DTD SVG 20010904//EN"
 "http://www.w3.org/TR/2001/REC-SVG-20010904/DTD/svg10.dtd">
<svg version="1.0" xmlns="http://www.w3.org/2000/svg"
 width="600.000000pt" height="600.000000pt" viewBox="0 0 600.000000 600.000000"
 preserveAspectRatio="xMidYMid meet">
<metadata>
Created by potrace 1.14, written by Peter Selinger 2001-2017
</metadata>
<g transform="translate(0.000000,600.000000) scale(0.100000,-0.100000)"
fill="#000000" stroke="none">
<path d="M2410 5799 c-76 -16 -148 -139 -175 -298 l-10 -64 -45 53 c-107 129
-203 200 -270 200 -32 0 -75 -31 -94 -69 -12 -23 -29 -129 -29 -181 -1 -32 14
-200 18 -212 2 -7 6 -32 9 -55 4 -34 3 -41 -9 -36 -8 3 -15 8 -15 12 0 8 -113
93 -175 131 -95 59 -180 88 -253 84 -95 -4 -137 -74 -129 -215 6 -101 13 -143
27 -169 6 -11 9 -20 6 -20 -5 0 37 -120 73 -208 12 -29 18 -52 14 -49 -16 8
-140 65 -188 87 -45 20 -113 47 -133 51 -4 1 -11 3 -17 5 -26 8 -113 20 -140
18 -16 -1 -42 -2 -57 -3 -34 -1 -86 -53 -90 -89 -11 -89 50 -215 193 -404 33
-43 56 -78 52 -78 -5 1 -34 7 -66 14 -31 8 -57 12 -57 10 0 -3 -8 0 -18 5 -27
14 -106 23 -232 26 -131 3 -192 -14 -245 -66 -26 -26 -30 -36 -29 -82 2 -61
25 -111 88 -195 42 -55 160 -171 226 -222 66 -51 75 -60 65 -60 -5 -1 -50 -3
-100 -6 -157 -8 -241 -20 -336 -50 -311 -98 -253 -295 145 -485 97 -46 387
-149 421 -149 15 0 22 -19 8 -21 -5 0 -15 -2 -23 -4 -8 -2 -25 -6 -38 -9 -12
-3 -26 -7 -30 -10 -5 -3 -22 -8 -38 -11 -33 -7 -42 -9 -64 -18 -8 -3 -46 -16
-85 -29 -38 -12 -71 -26 -73 -30 -2 -5 -11 -8 -19 -8 -38 0 -244 -114 -303
-167 -114 -103 -128 -177 -48 -256 48 -47 239 -111 365 -122 31 -3 58 -7 60
-9 2 -1 -25 -25 -59 -52 -82 -64 -188 -167 -188 -182 0 -7 -4 -12 -10 -12 -5
0 -10 -7 -10 -15 0 -8 -4 -15 -9 -15 -15 0 -45 -91 -44 -132 1 -26 11 -47 34
-72 17 -19 34 -35 38 -34 3 1 20 -4 36 -11 70 -29 230 -35 405 -16 57 7 62 6
50 -7 -14 -14 -51 -57 -119 -138 -37 -45 -87 -144 -99 -195 -10 -45 -1 -87 22
-111 22 -21 97 -43 133 -39 15 2 51 6 79 9 51 6 192 43 249 67 17 7 35 13 40
14 19 5 220 97 233 107 20 17 14 -4 -12 -42 -25 -38 -139 -271 -151 -310 -1
-3 -12 -36 -24 -75 -32 -98 -37 -218 -10 -273 39 -78 128 -94 258 -48 58 21
201 98 201 108 0 4 5 8 11 8 6 0 33 16 60 35 l48 36 -5 -28 c-11 -56 -14 -80
-20 -162 -3 -47 -6 -87 -6 -90 -5 -29 20 -140 41 -182 56 -113 151 -115 306
-9 38 26 147 132 199 194 21 25 25 27 25 10 -1 -29 10 -135 15 -143 2 -3 7
-26 11 -50 17 -116 85 -233 152 -263 37 -16 49 -17 85 -7 66 17 120 63 185
153 12 17 27 37 34 44 22 26 127 237 152 307 14 39 27 63 30 55 3 -8 14 -42
25 -75 46 -137 108 -275 157 -350 34 -52 106 -124 142 -143 87 -47 170 -3 235
123 30 59 80 236 93 330 3 27 7 51 9 52 1 2 23 -25 48 -60 104 -141 223 -249
315 -286 81 -33 161 -2 198 75 37 78 49 247 30 410 l-6 57 58 -49 c32 -27 64
-55 71 -62 30 -28 137 -95 189 -119 36 -17 74 -26 110 -26 52 -1 58 2 85 33
33 40 39 86 24 189 -15 102 -87 296 -161 436 -80 150 -109 200 -117 203 -4 2
-8 8 -8 14 0 5 19 -1 43 -15 89 -52 224 -123 277 -146 30 -13 69 -29 85 -37
46 -20 207 -73 251 -81 21 -4 76 -7 121 -6 66 1 89 5 118 23 119 74 59 274
-161 540 -21 25 -103 110 -183 189 -80 79 -137 141 -126 138 20 -6 138 -30
210 -42 22 -4 49 -9 60 -11 63 -11 116 -15 265 -19 91 -2 188 0 215 6 270 50
311 177 117 366 -57 55 -268 203 -290 203 -7 0 -12 4 -12 8 0 4 39 16 88 26
294 60 481 174 467 286 -7 55 -37 93 -115 147 -47 32 -180 96 -180 86 0 -3 -7
1 -17 8 -9 8 -17 13 -17 11 -1 -2 -8 -1 -16 2 -13 4 -112 33 -145 42 -5 2 -26
6 -45 10 -58 10 -66 19 -28 33 18 7 42 18 53 24 11 6 45 24 75 40 61 32 77 41
135 77 129 80 233 208 221 272 -3 13 -5 28 -5 34 -2 20 -61 74 -104 93 -47 22
-145 46 -227 57 -65 8 -321 8 -368 -1 -40 -7 -36 4 17 49 20 17 75 69 123 116
146 143 220 260 221 355 2 99 -64 146 -210 148 -49 0 -108 -2 -133 -7 -25 -4
-56 -9 -70 -11 -51 -9 -159 -36 -195 -51 l-20 -7 20 24 c11 13 22 26 26 29 3
3 18 23 34 45 17 22 32 42 35 45 29 27 99 147 132 225 14 35 15 89 1 117 -37
76 -216 41 -470 -92 -73 -38 -133 -68 -133 -65 0 2 11 34 24 72 52 145 70 234
71 338 0 80 -4 108 -20 140 -46 91 -137 101 -280 30 -49 -24 -101 -55 -115
-68 -14 -13 -32 -27 -41 -33 -37 -21 -163 -136 -237 -218 l-43 -47 7 58 c4 32
8 72 10 88 6 50 5 277 -2 325 -8 65 -48 174 -75 209 -85 106 -239 46 -389
-153 l-44 -59 -18 92 c-32 160 -85 239 -155 227 -15 -2 -31 -5 -35 -5 -5 -1
-26 -17 -48 -37 -50 -45 -111 -135 -153 -222 -17 -37 -35 -70 -40 -73 -5 -3
-8 -9 -7 -13 2 -7 -36 -110 -51 -138 -5 -10 -9 -22 -9 -27 0 -5 -5 -22 -11
-38 -10 -27 -11 -26 -43 52 -30 72 -66 145 -137 274 -13 24 -50 72 -82 107
-87 95 -149 127 -217 113z"/>
</g>
</svg>
